<mxfile host="app.diagrams.net" agent="Mozilla/5.0 (Macintosh; Intel Mac OS X 10_15_7) AppleWebKit/537.36 (KHTML, like Gecko) Chrome/130.0.0.0 Safari/537.36" version="24.7.17">
  <diagram id="diagram123" name="Архитектура приложения">
    <mxGraphModel dx="2069" dy="706" grid="1" gridSize="10" guides="1" tooltips="1" connect="1" arrows="1" fold="1" page="1" pageScale="1" pageWidth="827" pageHeight="1169" math="0" shadow="0">
      <root>
        <mxCell id="0" />
        <mxCell id="1" parent="0" />
        <mxCell id="2" value="Пользователь" style="shape=ellipse;whiteSpace=wrap;html=1;fillColor=#dae8fc;strokeColor=#6c8ebf;" parent="1" vertex="1">
          <mxGeometry x="50" y="150" width="100" height="60" as="geometry" />
        </mxCell>
        <mxCell id="3" value="Мобильное приложение" style="shape=rectangle;whiteSpace=wrap;html=1;fillColor=#fff2cc;strokeColor=#d6b656;" parent="1" vertex="1">
          <mxGeometry x="60" y="430" width="180" height="60" as="geometry" />
        </mxCell>
        <mxCell id="4" value="Серверное приложение (Backend)" style="shape=rectangle;whiteSpace=wrap;html=1;fillColor=#d5e8d4;strokeColor=#82b366;" parent="1" vertex="1">
          <mxGeometry x="310" y="555" width="180" height="60" as="geometry" />
        </mxCell>
        <mxCell id="5" value="База данных (PostgreSQL)" style="shape=cylinder;whiteSpace=wrap;html=1;fillColor=#f8cecc;strokeColor=#b85450;" parent="1" vertex="1">
          <mxGeometry x="710" y="515" width="100" height="100" as="geometry" />
        </mxCell>
        <mxCell id="6" value="Администратор" style="shape=ellipse;whiteSpace=wrap;html=1;fillColor=#ffe6cc;strokeColor=#d79b00;" parent="1" vertex="1">
          <mxGeometry x="660" y="320" width="100" height="60" as="geometry" />
        </mxCell>
        <mxCell id="7" value="Админ-панель" style="shape=rectangle;whiteSpace=wrap;html=1;fillColor=#e1d5e7;strokeColor=#9673a6;" parent="1" vertex="1">
          <mxGeometry x="260" y="220" width="180" height="60" as="geometry" />
        </mxCell>
        <mxCell id="8" value="Ввод данных / Отображение информации" style="edgeStyle=elbowEdgeStyle;rounded=0;orthogonalLoop=1;html=1;" parent="1" source="2" target="3" edge="1">
          <mxGeometry relative="1" as="geometry" />
        </mxCell>
        <mxCell id="9" value="HTTP запросы (REST API) + Периодические запросы каждые 30 сек" style="edgeStyle=elbowEdgeStyle;rounded=0;orthogonalLoop=1;html=1;" parent="1" source="3" target="4" edge="1">
          <mxGeometry relative="1" as="geometry" />
        </mxCell>
        <mxCell id="10" value="Запись/Чтение данных" style="edgeStyle=elbowEdgeStyle;rounded=0;orthogonalLoop=1;html=1;" parent="1" source="4" target="5" edge="1">
          <mxGeometry relative="1" as="geometry" />
        </mxCell>
        <mxCell id="11" value="Ввод данных / Отображение информации" style="edgeStyle=elbowEdgeStyle;rounded=0;orthogonalLoop=1;html=1;" parent="1" source="6" target="7" edge="1">
          <mxGeometry relative="1" as="geometry" />
        </mxCell>
        <mxCell id="12" value="HTTP запросы (REST API) + Периодические запросы каждые 30 сек" style="edgeStyle=elbowEdgeStyle;rounded=0;orthogonalLoop=1;html=1;" parent="1" source="7" target="4" edge="1">
          <mxGeometry relative="1" as="geometry" />
        </mxCell>
      </root>
    </mxGraphModel>
  </diagram>
</mxfile>
